M48
; DRILL file {KiCad 8.0.8} date 2025-02-03T18:15:45-0700
; FORMAT={-:-/ absolute / inch / decimal}
; #@! TF.CreationDate,2025-02-03T18:15:45-07:00
; #@! TF.GenerationSoftware,Kicad,Pcbnew,8.0.8
; #@! TF.FileFunction,Plated,1,2,PTH
FMAT,2
INCH
; #@! TA.AperFunction,Plated,PTH,ComponentDrill
T1C0.0315
; #@! TA.AperFunction,Plated,PTH,ComponentDrill
T2C0.0354
; #@! TA.AperFunction,Plated,PTH,ComponentDrill
T3C0.0374
; #@! TA.AperFunction,Plated,PTH,ComponentDrill
T4C0.0394
; #@! TA.AperFunction,Plated,PTH,ComponentDrill
T5C0.0433
%
G90
G05
T1
X5.0724Y-3.2972
X5.0854Y-2.5689
X5.4724Y-3.2972
X5.4854Y-2.5689
X5.5579Y-2.7854
X5.6138Y-3.2972
X5.9579Y-2.7854
X6.0138Y-3.2972
X6.0567Y-2.3228
X6.1189Y-2.8543
X6.2189Y-3.5242
X6.3189Y-3.6242
X6.4189Y-3.5242
X6.4567Y-2.3228
X6.5189Y-2.8543
T2
X5.4134Y-2.2244
X5.4134Y-2.3244
T3
X5.7972Y-2.2343
X5.7972Y-2.3327
X5.7972Y-2.4311
T4
X4.0406Y-2.574
X4.1406Y-2.574
X4.2406Y-2.574
X4.3406Y-2.574
X4.3445Y-2.7366
X4.4406Y-2.574
X4.4445Y-2.7366
X4.5406Y-2.574
X4.5445Y-2.7366
X4.6406Y-2.574
X4.6445Y-2.7366
X4.677Y-1.937
X4.7406Y-2.574
X4.777Y-1.937
X4.877Y-1.937
X4.977Y-1.937
X5.037Y-3.837
X5.077Y-1.937
X5.137Y-3.837
X5.177Y-1.937
X5.237Y-3.837
X5.277Y-1.937
X5.337Y-3.837
X5.377Y-1.937
X5.437Y-3.837
X5.477Y-1.937
X5.537Y-3.837
X5.577Y-1.937
X5.637Y-3.837
X5.737Y-1.937
X5.737Y-3.837
X5.837Y-1.937
X5.937Y-1.937
X5.937Y-3.837
X6.037Y-1.937
X6.037Y-3.837
X6.137Y-1.937
X6.137Y-3.837
X6.237Y-1.937
X6.237Y-3.837
X6.337Y-1.937
X6.337Y-3.837
X6.437Y-1.937
X6.437Y-3.837
T5
X5.1969Y-3.4744
X5.1969Y-3.6516
X5.4528Y-3.4744
X5.4528Y-3.6516
X5.689Y-2.9626
X5.689Y-3.1398
X5.689Y-3.4646
X5.689Y-3.6417
X5.9449Y-2.9626
X5.9449Y-3.1398
X5.9449Y-3.4646
X5.9449Y-3.6417
X6.2008Y-3.0118
X6.2008Y-3.189
X6.2598Y-2.4902
X6.2598Y-2.6673
X6.4567Y-3.0118
X6.4567Y-3.189
X6.5157Y-2.4902
X6.5157Y-2.6673
M30
