%TF.GenerationSoftware,KiCad,Pcbnew,8.0.8*%
%TF.CreationDate,2025-02-03T18:15:26-07:00*%
%TF.ProjectId,Uno_Shield_ThermoPro,556e6f5f-5368-4696-956c-645f54686572,1.0*%
%TF.SameCoordinates,Original*%
%TF.FileFunction,Copper,L1,Top*%
%TF.FilePolarity,Positive*%
%FSLAX46Y46*%
G04 Gerber Fmt 4.6, Leading zero omitted, Abs format (unit mm)*
G04 Created by KiCad (PCBNEW 8.0.8) date 2025-02-03 18:15:26*
%MOMM*%
%LPD*%
G01*
G04 APERTURE LIST*
G04 Aperture macros list*
%AMRoundRect*
0 Rectangle with rounded corners*
0 $1 Rounding radius*
0 $2 $3 $4 $5 $6 $7 $8 $9 X,Y pos of 4 corners*
0 Add a 4 corners polygon primitive as box body*
4,1,4,$2,$3,$4,$5,$6,$7,$8,$9,$2,$3,0*
0 Add four circle primitives for the rounded corners*
1,1,$1+$1,$2,$3*
1,1,$1+$1,$4,$5*
1,1,$1+$1,$6,$7*
1,1,$1+$1,$8,$9*
0 Add four rect primitives between the rounded corners*
20,1,$1+$1,$2,$3,$4,$5,0*
20,1,$1+$1,$4,$5,$6,$7,0*
20,1,$1+$1,$6,$7,$8,$9,0*
20,1,$1+$1,$8,$9,$2,$3,0*%
G04 Aperture macros list end*
%TA.AperFunction,ComponentPad*%
%ADD10R,1.700000X1.700000*%
%TD*%
%TA.AperFunction,ComponentPad*%
%ADD11O,1.700000X1.700000*%
%TD*%
%TA.AperFunction,ComponentPad*%
%ADD12C,2.000000*%
%TD*%
%TA.AperFunction,ComponentPad*%
%ADD13R,1.800000X1.800000*%
%TD*%
%TA.AperFunction,ComponentPad*%
%ADD14C,1.800000*%
%TD*%
%TA.AperFunction,ComponentPad*%
%ADD15C,1.600000*%
%TD*%
%TA.AperFunction,ComponentPad*%
%ADD16O,1.600000X1.600000*%
%TD*%
%TA.AperFunction,ComponentPad*%
%ADD17RoundRect,0.250000X0.725000X-0.600000X0.725000X0.600000X-0.725000X0.600000X-0.725000X-0.600000X0*%
%TD*%
%TA.AperFunction,ComponentPad*%
%ADD18O,1.950000X1.700000*%
%TD*%
%TA.AperFunction,ComponentPad*%
%ADD19C,1.440000*%
%TD*%
%TA.AperFunction,Conductor*%
%ADD20C,0.250000*%
%TD*%
G04 APERTURE END LIST*
D10*
%TO.P,J1,1,Pin_1*%
%TO.N,unconnected-(J1-Pin_1-Pad1)*%
X127940000Y-97460000D03*
D11*
%TO.P,J1,2,Pin_2*%
%TO.N,/IOREF*%
X130480000Y-97460000D03*
%TO.P,J1,3,Pin_3*%
%TO.N,/~{RESET}*%
X133020000Y-97460000D03*
%TO.P,J1,4,Pin_4*%
%TO.N,+3V3*%
X135560000Y-97460000D03*
%TO.P,J1,5,Pin_5*%
%TO.N,+5V*%
X138100000Y-97460000D03*
%TO.P,J1,6,Pin_6*%
%TO.N,GND*%
X140640000Y-97460000D03*
%TO.P,J1,7,Pin_7*%
X143180000Y-97460000D03*
%TO.P,J1,8,Pin_8*%
%TO.N,VCC*%
X145720000Y-97460000D03*
%TD*%
D10*
%TO.P,J3,1,Pin_1*%
%TO.N,/temp_sensor*%
X150800000Y-97460000D03*
D11*
%TO.P,J3,2,Pin_2*%
%TO.N,/A1*%
X153340000Y-97460000D03*
%TO.P,J3,3,Pin_3*%
%TO.N,/A2*%
X155880000Y-97460000D03*
%TO.P,J3,4,Pin_4*%
%TO.N,/A3*%
X158420000Y-97460000D03*
%TO.P,J3,5,Pin_5*%
%TO.N,/SDA{slash}A4*%
X160960000Y-97460000D03*
%TO.P,J3,6,Pin_6*%
%TO.N,/SCL{slash}A5*%
X163500000Y-97460000D03*
%TD*%
D10*
%TO.P,J2,1,Pin_1*%
%TO.N,/I2C_SCL*%
X118796000Y-49200000D03*
D11*
%TO.P,J2,2,Pin_2*%
%TO.N,/I2C_SDA*%
X121336000Y-49200000D03*
%TO.P,J2,3,Pin_3*%
%TO.N,/AREF*%
X123876000Y-49200000D03*
%TO.P,J2,4,Pin_4*%
%TO.N,GND*%
X126416000Y-49200000D03*
%TO.P,J2,5,Pin_5*%
%TO.N,/13*%
X128956000Y-49200000D03*
%TO.P,J2,6,Pin_6*%
%TO.N,/12*%
X131496000Y-49200000D03*
%TO.P,J2,7,Pin_7*%
%TO.N,/\u002A11*%
X134036000Y-49200000D03*
%TO.P,J2,8,Pin_8*%
%TO.N,/\u002A10*%
X136576000Y-49200000D03*
%TO.P,J2,9,Pin_9*%
%TO.N,/led_light*%
X139116000Y-49200000D03*
%TO.P,J2,10,Pin_10*%
%TO.N,/temp_digital*%
X141656000Y-49200000D03*
%TD*%
D10*
%TO.P,J4,1,Pin_1*%
%TO.N,/7*%
X145720000Y-49200000D03*
D11*
%TO.P,J4,2,Pin_2*%
%TO.N,/button_light*%
X148260000Y-49200000D03*
%TO.P,J4,3,Pin_3*%
%TO.N,/button_cal*%
X150800000Y-49200000D03*
%TO.P,J4,4,Pin_4*%
%TO.N,/button_units*%
X153340000Y-49200000D03*
%TO.P,J4,5,Pin_5*%
%TO.N,/button_lock*%
X155880000Y-49200000D03*
%TO.P,J4,6,Pin_6*%
%TO.N,/button_onoff*%
X158420000Y-49200000D03*
%TO.P,J4,7,Pin_7*%
%TO.N,/TX{slash}1*%
X160960000Y-49200000D03*
%TO.P,J4,8,Pin_8*%
%TO.N,/RX{slash}0*%
X163500000Y-49200000D03*
%TD*%
D12*
%TO.P,SW4,1,A*%
%TO.N,/button_lock*%
X144500000Y-88000000D03*
X151000000Y-88000000D03*
%TO.P,SW4,2,B*%
%TO.N,+5V*%
X144500000Y-92500000D03*
X151000000Y-92500000D03*
%TD*%
D13*
%TO.P,D1,1,K*%
%TO.N,GND*%
X137500000Y-59040000D03*
D14*
%TO.P,D1,2,A*%
%TO.N,Net-(D1-A)*%
X137500000Y-56500000D03*
%TD*%
D12*
%TO.P,SW5,1,A*%
%TO.N,/button_light*%
X132000000Y-88250000D03*
X138500000Y-88250000D03*
%TO.P,SW5,2,B*%
%TO.N,+5V*%
X132000000Y-92750000D03*
X138500000Y-92750000D03*
%TD*%
%TO.P,SW2,1,A*%
%TO.N,/button_units*%
X157500000Y-76500000D03*
X164000000Y-76500000D03*
%TO.P,SW2,2,B*%
%TO.N,+5V*%
X157500000Y-81000000D03*
X164000000Y-81000000D03*
%TD*%
D15*
%TO.P,R4,1*%
%TO.N,/button_cal*%
X151330000Y-70750000D03*
D16*
%TO.P,R4,2*%
%TO.N,GND*%
X141170000Y-70750000D03*
%TD*%
D15*
%TO.P,R1,1*%
%TO.N,/led_light*%
X139330000Y-65250000D03*
D16*
%TO.P,R1,2*%
%TO.N,Net-(D1-A)*%
X129170000Y-65250000D03*
%TD*%
D12*
%TO.P,SW3,1,A*%
%TO.N,/button_cal*%
X144500000Y-75250000D03*
X151000000Y-75250000D03*
%TO.P,SW3,2,B*%
%TO.N,+5V*%
X144500000Y-79750000D03*
X151000000Y-79750000D03*
%TD*%
D10*
%TO.P,J6,1,Pin_1*%
%TO.N,GND*%
X110350000Y-69510000D03*
D11*
%TO.P,J6,2,Pin_2*%
%TO.N,+5V*%
X112890000Y-69510000D03*
%TO.P,J6,3,Pin_3*%
%TO.N,/I2C_SCL*%
X115430000Y-69510000D03*
%TO.P,J6,4,Pin_4*%
%TO.N,/I2C_SDA*%
X117970000Y-69510000D03*
%TD*%
D12*
%TO.P,SW1,1,A*%
%TO.N,/button_onoff*%
X159000000Y-63250000D03*
X165500000Y-63250000D03*
%TO.P,SW1,2,B*%
%TO.N,+5V*%
X159000000Y-67750000D03*
X165500000Y-67750000D03*
%TD*%
D15*
%TO.P,R5,1*%
%TO.N,/button_lock*%
X152750000Y-83750000D03*
D16*
%TO.P,R5,2*%
%TO.N,GND*%
X142590000Y-83750000D03*
%TD*%
D17*
%TO.P,J7,1,Pin_1*%
%TO.N,GND*%
X147250000Y-61750000D03*
D18*
%TO.P,J7,2,Pin_2*%
%TO.N,/temp_digital*%
X147250000Y-59250000D03*
%TO.P,J7,3,Pin_3*%
%TO.N,+5V*%
X147250000Y-56750000D03*
%TD*%
D15*
%TO.P,R2,1*%
%TO.N,/button_onoff*%
X164000000Y-59000000D03*
D16*
%TO.P,R2,2*%
%TO.N,GND*%
X153840000Y-59000000D03*
%TD*%
D19*
%TO.P,RV1,1,1*%
%TO.N,+5V*%
X157960000Y-89515000D03*
%TO.P,RV1,2,2*%
%TO.N,/temp_sensor*%
X160500000Y-92055000D03*
%TO.P,RV1,3,3*%
%TO.N,GND*%
X163040000Y-89515000D03*
%TD*%
D10*
%TO.P,J5,1,Pin_1*%
%TO.N,+5V*%
X102630000Y-65380000D03*
D11*
%TO.P,J5,2,Pin_2*%
%TO.N,GND*%
X105170000Y-65380000D03*
%TO.P,J5,3,Pin_3*%
%TO.N,/I2C_SCL*%
X107710000Y-65380000D03*
%TO.P,J5,4,Pin_4*%
%TO.N,/I2C_SDA*%
X110250000Y-65380000D03*
%TO.P,J5,5,Pin_5*%
%TO.N,unconnected-(J5-Pin_5-Pad5)*%
X112790000Y-65380000D03*
%TO.P,J5,6,Pin_6*%
%TO.N,unconnected-(J5-Pin_6-Pad6)*%
X115330000Y-65380000D03*
%TO.P,J5,7,Pin_7*%
%TO.N,unconnected-(J5-Pin_7-Pad7)*%
X117870000Y-65380000D03*
%TO.P,J5,8,Pin_8*%
%TO.N,unconnected-(J5-Pin_8-Pad8)*%
X120410000Y-65380000D03*
%TD*%
D15*
%TO.P,R6,1*%
%TO.N,/button_light*%
X139000000Y-83750000D03*
D16*
%TO.P,R6,2*%
%TO.N,GND*%
X128840000Y-83750000D03*
%TD*%
D15*
%TO.P,R3,1*%
%TO.N,/button_units*%
X165580000Y-72500000D03*
D16*
%TO.P,R3,2*%
%TO.N,GND*%
X155420000Y-72500000D03*
%TD*%
D20*
%TO.N,+5V*%
X112890000Y-73640000D02*
X120750000Y-81500000D01*
X120750000Y-66877701D02*
X120750000Y-81500000D01*
X120750000Y-81500000D02*
X132000000Y-92750000D01*
X147250000Y-56750000D02*
X149435000Y-54565000D01*
X149435000Y-54565000D02*
X149435000Y-48713299D01*
X149435000Y-48713299D02*
X148296701Y-47575000D01*
X148296701Y-47575000D02*
X139079299Y-47575000D01*
X137941000Y-48713299D02*
X137941000Y-49686701D01*
X139079299Y-47575000D02*
X137941000Y-48713299D01*
X137941000Y-49686701D02*
X120750000Y-66877701D01*
%TO.N,/button_light*%
X148260000Y-49200000D02*
X147085000Y-48025000D01*
X147085000Y-48025000D02*
X141169299Y-48025000D01*
X141169299Y-48025000D02*
X140481000Y-48713299D01*
X140481000Y-64811000D02*
X143175000Y-67505000D01*
X140481000Y-48713299D02*
X140481000Y-64811000D01*
X143175000Y-67505000D02*
X143175000Y-79575000D01*
X143175000Y-79575000D02*
X139000000Y-83750000D01*
%TO.N,Net-(D1-A)*%
X129170000Y-64830000D02*
X137500000Y-56500000D01*
%TO.N,/button_light*%
X139000000Y-83750000D02*
X139000000Y-87750000D01*
X132000000Y-88250000D02*
X138500000Y-88250000D01*
%TO.N,+5V*%
X138500000Y-92750000D02*
X140750000Y-92750000D01*
X140750000Y-92750000D02*
X144250000Y-92750000D01*
X144500000Y-79750000D02*
X140750000Y-83500000D01*
X140750000Y-83500000D02*
X140750000Y-92750000D01*
X144500000Y-79750000D02*
X151000000Y-79750000D01*
X165500000Y-67750000D02*
X166705000Y-68955000D01*
X166705000Y-68955000D02*
X166705000Y-78295000D01*
X166705000Y-78295000D02*
X164000000Y-81000000D01*
X112890000Y-69510000D02*
X112890000Y-73640000D01*
X151000000Y-92500000D02*
X154975000Y-92500000D01*
X154975000Y-92500000D02*
X157960000Y-89515000D01*
%TO.N,/button_lock*%
X152750000Y-83750000D02*
X152750000Y-64010229D01*
X152750000Y-64010229D02*
X151800000Y-63060229D01*
X151800000Y-63060229D02*
X151800000Y-50051701D01*
X152165000Y-48713299D02*
X152878299Y-48000000D01*
X151800000Y-50051701D02*
X152165000Y-49686701D01*
X152165000Y-49686701D02*
X152165000Y-48713299D01*
X152878299Y-48000000D02*
X154680000Y-48000000D01*
X154680000Y-48000000D02*
X155880000Y-49200000D01*
%TO.N,/button_cal*%
X151000000Y-75250000D02*
X151000000Y-71080000D01*
X144500000Y-75250000D02*
X151000000Y-75250000D01*
%TO.N,/button_lock*%
X144500000Y-88000000D02*
X151000000Y-88000000D01*
X151000000Y-88000000D02*
X151000000Y-85500000D01*
X151000000Y-85500000D02*
X152750000Y-83750000D01*
%TO.N,+5V*%
X138500000Y-92750000D02*
X138500000Y-97060000D01*
X132000000Y-92750000D02*
X138500000Y-92750000D01*
X144500000Y-92500000D02*
X151000000Y-92500000D01*
X157960000Y-89515000D02*
X157960000Y-81460000D01*
%TO.N,/temp_sensor*%
X150800000Y-97460000D02*
X156205000Y-92055000D01*
X156205000Y-92055000D02*
X160500000Y-92055000D01*
%TO.N,+5V*%
X164000000Y-81000000D02*
X157500000Y-81000000D01*
%TO.N,/button_units*%
X164000000Y-76500000D02*
X165580000Y-74920000D01*
X165580000Y-74920000D02*
X165580000Y-72500000D01*
X164000000Y-76500000D02*
X157500000Y-76500000D01*
X165580000Y-72500000D02*
X161876167Y-72500000D01*
X161876167Y-72500000D02*
X152250000Y-62873833D01*
X152250000Y-62873833D02*
X152250000Y-50290000D01*
X152250000Y-50290000D02*
X153340000Y-49200000D01*
%TO.N,+5V*%
X165500000Y-67750000D02*
X159000000Y-67750000D01*
%TO.N,/button_onoff*%
X165500000Y-63250000D02*
X159000000Y-63250000D01*
X164000000Y-59000000D02*
X164000000Y-61750000D01*
X164000000Y-61750000D02*
X165500000Y-63250000D01*
X158420000Y-49200000D02*
X158420000Y-53420000D01*
X158420000Y-53420000D02*
X164000000Y-59000000D01*
%TO.N,/button_cal*%
X150800000Y-49200000D02*
X150800000Y-70220000D01*
X150800000Y-70220000D02*
X151330000Y-70750000D01*
%TO.N,/temp_digital*%
X147125000Y-59250000D02*
X141656000Y-53781000D01*
X141656000Y-53781000D02*
X141656000Y-49200000D01*
%TO.N,/led_light*%
X139116000Y-49200000D02*
X139116000Y-65036000D01*
%TO.N,/I2C_SDA*%
X110250000Y-65380000D02*
X121336000Y-54294000D01*
X121336000Y-54294000D02*
X121336000Y-49200000D01*
%TO.N,+5V*%
X102630000Y-65380000D02*
X107935000Y-70685000D01*
X107935000Y-70685000D02*
X111715000Y-70685000D01*
X111715000Y-70685000D02*
X112890000Y-69510000D01*
%TO.N,/I2C_SDA*%
X110250000Y-65380000D02*
X112755000Y-67885000D01*
X112755000Y-67885000D02*
X116345000Y-67885000D01*
X116345000Y-67885000D02*
X117970000Y-69510000D01*
%TO.N,/I2C_SCL*%
X107710000Y-65380000D02*
X108570000Y-65380000D01*
X108570000Y-65380000D02*
X111525000Y-68335000D01*
X111525000Y-68335000D02*
X114255000Y-68335000D01*
X114255000Y-68335000D02*
X115430000Y-69510000D01*
X118796000Y-49200000D02*
X118796000Y-54294000D01*
X118796000Y-54294000D02*
X107710000Y-65380000D01*
%TD*%
M02*
