%TF.GenerationSoftware,KiCad,Pcbnew,8.0.8*%
%TF.CreationDate,2025-02-03T18:15:26-07:00*%
%TF.ProjectId,Uno_Shield_ThermoPro,556e6f5f-5368-4696-956c-645f54686572,1.0*%
%TF.SameCoordinates,Original*%
%TF.FileFunction,Legend,Top*%
%TF.FilePolarity,Positive*%
%FSLAX46Y46*%
G04 Gerber Fmt 4.6, Leading zero omitted, Abs format (unit mm)*
G04 Created by KiCad (PCBNEW 8.0.8) date 2025-02-03 18:15:26*
%MOMM*%
%LPD*%
G01*
G04 APERTURE LIST*
%ADD10C,0.150000*%
%ADD11C,0.100000*%
%ADD12C,0.000000*%
%ADD13C,0.120000*%
G04 APERTURE END LIST*
D10*
X158777255Y-69619819D02*
X158967731Y-69619819D01*
X158967731Y-69619819D02*
X159062969Y-69667438D01*
X159062969Y-69667438D02*
X159158207Y-69762676D01*
X159158207Y-69762676D02*
X159205826Y-69953152D01*
X159205826Y-69953152D02*
X159205826Y-70286485D01*
X159205826Y-70286485D02*
X159158207Y-70476961D01*
X159158207Y-70476961D02*
X159062969Y-70572200D01*
X159062969Y-70572200D02*
X158967731Y-70619819D01*
X158967731Y-70619819D02*
X158777255Y-70619819D01*
X158777255Y-70619819D02*
X158682017Y-70572200D01*
X158682017Y-70572200D02*
X158586779Y-70476961D01*
X158586779Y-70476961D02*
X158539160Y-70286485D01*
X158539160Y-70286485D02*
X158539160Y-69953152D01*
X158539160Y-69953152D02*
X158586779Y-69762676D01*
X158586779Y-69762676D02*
X158682017Y-69667438D01*
X158682017Y-69667438D02*
X158777255Y-69619819D01*
X159634398Y-70619819D02*
X159634398Y-69619819D01*
X159634398Y-69619819D02*
X160205826Y-70619819D01*
X160205826Y-70619819D02*
X160205826Y-69619819D01*
X161396302Y-69572200D02*
X160539160Y-70857914D01*
X161920112Y-69619819D02*
X162110588Y-69619819D01*
X162110588Y-69619819D02*
X162205826Y-69667438D01*
X162205826Y-69667438D02*
X162301064Y-69762676D01*
X162301064Y-69762676D02*
X162348683Y-69953152D01*
X162348683Y-69953152D02*
X162348683Y-70286485D01*
X162348683Y-70286485D02*
X162301064Y-70476961D01*
X162301064Y-70476961D02*
X162205826Y-70572200D01*
X162205826Y-70572200D02*
X162110588Y-70619819D01*
X162110588Y-70619819D02*
X161920112Y-70619819D01*
X161920112Y-70619819D02*
X161824874Y-70572200D01*
X161824874Y-70572200D02*
X161729636Y-70476961D01*
X161729636Y-70476961D02*
X161682017Y-70286485D01*
X161682017Y-70286485D02*
X161682017Y-69953152D01*
X161682017Y-69953152D02*
X161729636Y-69762676D01*
X161729636Y-69762676D02*
X161824874Y-69667438D01*
X161824874Y-69667438D02*
X161920112Y-69619819D01*
X163110588Y-70096009D02*
X162777255Y-70096009D01*
X162777255Y-70619819D02*
X162777255Y-69619819D01*
X162777255Y-69619819D02*
X163253445Y-69619819D01*
X163967731Y-70096009D02*
X163634398Y-70096009D01*
X163634398Y-70619819D02*
X163634398Y-69619819D01*
X163634398Y-69619819D02*
X164110588Y-69619819D01*
X144312969Y-95119819D02*
X143836779Y-95119819D01*
X143836779Y-95119819D02*
X143836779Y-94119819D01*
X144789160Y-95119819D02*
X144693922Y-95072200D01*
X144693922Y-95072200D02*
X144646303Y-95024580D01*
X144646303Y-95024580D02*
X144598684Y-94929342D01*
X144598684Y-94929342D02*
X144598684Y-94643628D01*
X144598684Y-94643628D02*
X144646303Y-94548390D01*
X144646303Y-94548390D02*
X144693922Y-94500771D01*
X144693922Y-94500771D02*
X144789160Y-94453152D01*
X144789160Y-94453152D02*
X144932017Y-94453152D01*
X144932017Y-94453152D02*
X145027255Y-94500771D01*
X145027255Y-94500771D02*
X145074874Y-94548390D01*
X145074874Y-94548390D02*
X145122493Y-94643628D01*
X145122493Y-94643628D02*
X145122493Y-94929342D01*
X145122493Y-94929342D02*
X145074874Y-95024580D01*
X145074874Y-95024580D02*
X145027255Y-95072200D01*
X145027255Y-95072200D02*
X144932017Y-95119819D01*
X144932017Y-95119819D02*
X144789160Y-95119819D01*
X145979636Y-95072200D02*
X145884398Y-95119819D01*
X145884398Y-95119819D02*
X145693922Y-95119819D01*
X145693922Y-95119819D02*
X145598684Y-95072200D01*
X145598684Y-95072200D02*
X145551065Y-95024580D01*
X145551065Y-95024580D02*
X145503446Y-94929342D01*
X145503446Y-94929342D02*
X145503446Y-94643628D01*
X145503446Y-94643628D02*
X145551065Y-94548390D01*
X145551065Y-94548390D02*
X145598684Y-94500771D01*
X145598684Y-94500771D02*
X145693922Y-94453152D01*
X145693922Y-94453152D02*
X145884398Y-94453152D01*
X145884398Y-94453152D02*
X145979636Y-94500771D01*
X146408208Y-95119819D02*
X146408208Y-94119819D01*
X146503446Y-94738866D02*
X146789160Y-95119819D01*
X146789160Y-94453152D02*
X146408208Y-94834104D01*
X132312969Y-95369819D02*
X131836779Y-95369819D01*
X131836779Y-95369819D02*
X131836779Y-94369819D01*
X132646303Y-95369819D02*
X132646303Y-94703152D01*
X132646303Y-94369819D02*
X132598684Y-94417438D01*
X132598684Y-94417438D02*
X132646303Y-94465057D01*
X132646303Y-94465057D02*
X132693922Y-94417438D01*
X132693922Y-94417438D02*
X132646303Y-94369819D01*
X132646303Y-94369819D02*
X132646303Y-94465057D01*
X133551064Y-94703152D02*
X133551064Y-95512676D01*
X133551064Y-95512676D02*
X133503445Y-95607914D01*
X133503445Y-95607914D02*
X133455826Y-95655533D01*
X133455826Y-95655533D02*
X133360588Y-95703152D01*
X133360588Y-95703152D02*
X133217731Y-95703152D01*
X133217731Y-95703152D02*
X133122493Y-95655533D01*
X133551064Y-95322200D02*
X133455826Y-95369819D01*
X133455826Y-95369819D02*
X133265350Y-95369819D01*
X133265350Y-95369819D02*
X133170112Y-95322200D01*
X133170112Y-95322200D02*
X133122493Y-95274580D01*
X133122493Y-95274580D02*
X133074874Y-95179342D01*
X133074874Y-95179342D02*
X133074874Y-94893628D01*
X133074874Y-94893628D02*
X133122493Y-94798390D01*
X133122493Y-94798390D02*
X133170112Y-94750771D01*
X133170112Y-94750771D02*
X133265350Y-94703152D01*
X133265350Y-94703152D02*
X133455826Y-94703152D01*
X133455826Y-94703152D02*
X133551064Y-94750771D01*
X134027255Y-95369819D02*
X134027255Y-94369819D01*
X134455826Y-95369819D02*
X134455826Y-94846009D01*
X134455826Y-94846009D02*
X134408207Y-94750771D01*
X134408207Y-94750771D02*
X134312969Y-94703152D01*
X134312969Y-94703152D02*
X134170112Y-94703152D01*
X134170112Y-94703152D02*
X134074874Y-94750771D01*
X134074874Y-94750771D02*
X134027255Y-94798390D01*
X134789160Y-94703152D02*
X135170112Y-94703152D01*
X134932017Y-94369819D02*
X134932017Y-95226961D01*
X134932017Y-95226961D02*
X134979636Y-95322200D01*
X134979636Y-95322200D02*
X135074874Y-95369819D01*
X135074874Y-95369819D02*
X135170112Y-95369819D01*
X159586779Y-82619819D02*
X159586779Y-83429342D01*
X159586779Y-83429342D02*
X159634398Y-83524580D01*
X159634398Y-83524580D02*
X159682017Y-83572200D01*
X159682017Y-83572200D02*
X159777255Y-83619819D01*
X159777255Y-83619819D02*
X159967731Y-83619819D01*
X159967731Y-83619819D02*
X160062969Y-83572200D01*
X160062969Y-83572200D02*
X160110588Y-83524580D01*
X160110588Y-83524580D02*
X160158207Y-83429342D01*
X160158207Y-83429342D02*
X160158207Y-82619819D01*
X160634398Y-82953152D02*
X160634398Y-83619819D01*
X160634398Y-83048390D02*
X160682017Y-83000771D01*
X160682017Y-83000771D02*
X160777255Y-82953152D01*
X160777255Y-82953152D02*
X160920112Y-82953152D01*
X160920112Y-82953152D02*
X161015350Y-83000771D01*
X161015350Y-83000771D02*
X161062969Y-83096009D01*
X161062969Y-83096009D02*
X161062969Y-83619819D01*
X161539160Y-83619819D02*
X161539160Y-82953152D01*
X161539160Y-82619819D02*
X161491541Y-82667438D01*
X161491541Y-82667438D02*
X161539160Y-82715057D01*
X161539160Y-82715057D02*
X161586779Y-82667438D01*
X161586779Y-82667438D02*
X161539160Y-82619819D01*
X161539160Y-82619819D02*
X161539160Y-82715057D01*
X161872493Y-82953152D02*
X162253445Y-82953152D01*
X162015350Y-82619819D02*
X162015350Y-83476961D01*
X162015350Y-83476961D02*
X162062969Y-83572200D01*
X162062969Y-83572200D02*
X162158207Y-83619819D01*
X162158207Y-83619819D02*
X162253445Y-83619819D01*
X162539160Y-83572200D02*
X162634398Y-83619819D01*
X162634398Y-83619819D02*
X162824874Y-83619819D01*
X162824874Y-83619819D02*
X162920112Y-83572200D01*
X162920112Y-83572200D02*
X162967731Y-83476961D01*
X162967731Y-83476961D02*
X162967731Y-83429342D01*
X162967731Y-83429342D02*
X162920112Y-83334104D01*
X162920112Y-83334104D02*
X162824874Y-83286485D01*
X162824874Y-83286485D02*
X162682017Y-83286485D01*
X162682017Y-83286485D02*
X162586779Y-83238866D01*
X162586779Y-83238866D02*
X162539160Y-83143628D01*
X162539160Y-83143628D02*
X162539160Y-83096009D01*
X162539160Y-83096009D02*
X162586779Y-83000771D01*
X162586779Y-83000771D02*
X162682017Y-82953152D01*
X162682017Y-82953152D02*
X162824874Y-82953152D01*
X162824874Y-82953152D02*
X162920112Y-83000771D01*
X137158207Y-74524580D02*
X137110588Y-74572200D01*
X137110588Y-74572200D02*
X136967731Y-74619819D01*
X136967731Y-74619819D02*
X136872493Y-74619819D01*
X136872493Y-74619819D02*
X136729636Y-74572200D01*
X136729636Y-74572200D02*
X136634398Y-74476961D01*
X136634398Y-74476961D02*
X136586779Y-74381723D01*
X136586779Y-74381723D02*
X136539160Y-74191247D01*
X136539160Y-74191247D02*
X136539160Y-74048390D01*
X136539160Y-74048390D02*
X136586779Y-73857914D01*
X136586779Y-73857914D02*
X136634398Y-73762676D01*
X136634398Y-73762676D02*
X136729636Y-73667438D01*
X136729636Y-73667438D02*
X136872493Y-73619819D01*
X136872493Y-73619819D02*
X136967731Y-73619819D01*
X136967731Y-73619819D02*
X137110588Y-73667438D01*
X137110588Y-73667438D02*
X137158207Y-73715057D01*
X138015350Y-74619819D02*
X138015350Y-74096009D01*
X138015350Y-74096009D02*
X137967731Y-74000771D01*
X137967731Y-74000771D02*
X137872493Y-73953152D01*
X137872493Y-73953152D02*
X137682017Y-73953152D01*
X137682017Y-73953152D02*
X137586779Y-74000771D01*
X138015350Y-74572200D02*
X137920112Y-74619819D01*
X137920112Y-74619819D02*
X137682017Y-74619819D01*
X137682017Y-74619819D02*
X137586779Y-74572200D01*
X137586779Y-74572200D02*
X137539160Y-74476961D01*
X137539160Y-74476961D02*
X137539160Y-74381723D01*
X137539160Y-74381723D02*
X137586779Y-74286485D01*
X137586779Y-74286485D02*
X137682017Y-74238866D01*
X137682017Y-74238866D02*
X137920112Y-74238866D01*
X137920112Y-74238866D02*
X138015350Y-74191247D01*
X138634398Y-74619819D02*
X138539160Y-74572200D01*
X138539160Y-74572200D02*
X138491541Y-74476961D01*
X138491541Y-74476961D02*
X138491541Y-73619819D01*
X139015351Y-74619819D02*
X139015351Y-73953152D01*
X139015351Y-73619819D02*
X138967732Y-73667438D01*
X138967732Y-73667438D02*
X139015351Y-73715057D01*
X139015351Y-73715057D02*
X139062970Y-73667438D01*
X139062970Y-73667438D02*
X139015351Y-73619819D01*
X139015351Y-73619819D02*
X139015351Y-73715057D01*
X139491541Y-74619819D02*
X139491541Y-73619819D01*
X139491541Y-74000771D02*
X139586779Y-73953152D01*
X139586779Y-73953152D02*
X139777255Y-73953152D01*
X139777255Y-73953152D02*
X139872493Y-74000771D01*
X139872493Y-74000771D02*
X139920112Y-74048390D01*
X139920112Y-74048390D02*
X139967731Y-74143628D01*
X139967731Y-74143628D02*
X139967731Y-74429342D01*
X139967731Y-74429342D02*
X139920112Y-74524580D01*
X139920112Y-74524580D02*
X139872493Y-74572200D01*
X139872493Y-74572200D02*
X139777255Y-74619819D01*
X139777255Y-74619819D02*
X139586779Y-74619819D01*
X139586779Y-74619819D02*
X139491541Y-74572200D01*
X140396303Y-74619819D02*
X140396303Y-73953152D01*
X140396303Y-74143628D02*
X140443922Y-74048390D01*
X140443922Y-74048390D02*
X140491541Y-74000771D01*
X140491541Y-74000771D02*
X140586779Y-73953152D01*
X140586779Y-73953152D02*
X140682017Y-73953152D01*
X141443922Y-74619819D02*
X141443922Y-74096009D01*
X141443922Y-74096009D02*
X141396303Y-74000771D01*
X141396303Y-74000771D02*
X141301065Y-73953152D01*
X141301065Y-73953152D02*
X141110589Y-73953152D01*
X141110589Y-73953152D02*
X141015351Y-74000771D01*
X141443922Y-74572200D02*
X141348684Y-74619819D01*
X141348684Y-74619819D02*
X141110589Y-74619819D01*
X141110589Y-74619819D02*
X141015351Y-74572200D01*
X141015351Y-74572200D02*
X140967732Y-74476961D01*
X140967732Y-74476961D02*
X140967732Y-74381723D01*
X140967732Y-74381723D02*
X141015351Y-74286485D01*
X141015351Y-74286485D02*
X141110589Y-74238866D01*
X141110589Y-74238866D02*
X141348684Y-74238866D01*
X141348684Y-74238866D02*
X141443922Y-74191247D01*
X141777256Y-73953152D02*
X142158208Y-73953152D01*
X141920113Y-73619819D02*
X141920113Y-74476961D01*
X141920113Y-74476961D02*
X141967732Y-74572200D01*
X141967732Y-74572200D02*
X142062970Y-74619819D01*
X142062970Y-74619819D02*
X142158208Y-74619819D01*
X142872494Y-74572200D02*
X142777256Y-74619819D01*
X142777256Y-74619819D02*
X142586780Y-74619819D01*
X142586780Y-74619819D02*
X142491542Y-74572200D01*
X142491542Y-74572200D02*
X142443923Y-74476961D01*
X142443923Y-74476961D02*
X142443923Y-74096009D01*
X142443923Y-74096009D02*
X142491542Y-74000771D01*
X142491542Y-74000771D02*
X142586780Y-73953152D01*
X142586780Y-73953152D02*
X142777256Y-73953152D01*
X142777256Y-73953152D02*
X142872494Y-74000771D01*
X142872494Y-74000771D02*
X142920113Y-74096009D01*
X142920113Y-74096009D02*
X142920113Y-74191247D01*
X142920113Y-74191247D02*
X142443923Y-74286485D01*
X119443922Y-93869819D02*
X120015350Y-93869819D01*
X119729636Y-94869819D02*
X119729636Y-93869819D01*
X120348684Y-94346009D02*
X120682017Y-94346009D01*
X120824874Y-94869819D02*
X120348684Y-94869819D01*
X120348684Y-94869819D02*
X120348684Y-93869819D01*
X120348684Y-93869819D02*
X120824874Y-93869819D01*
X121253446Y-94869819D02*
X121253446Y-93869819D01*
X121253446Y-93869819D02*
X121586779Y-94584104D01*
X121586779Y-94584104D02*
X121920112Y-93869819D01*
X121920112Y-93869819D02*
X121920112Y-94869819D01*
X122396303Y-93869819D02*
X122396303Y-94679342D01*
X122396303Y-94679342D02*
X122443922Y-94774580D01*
X122443922Y-94774580D02*
X122491541Y-94822200D01*
X122491541Y-94822200D02*
X122586779Y-94869819D01*
X122586779Y-94869819D02*
X122777255Y-94869819D01*
X122777255Y-94869819D02*
X122872493Y-94822200D01*
X122872493Y-94822200D02*
X122920112Y-94774580D01*
X122920112Y-94774580D02*
X122967731Y-94679342D01*
X122967731Y-94679342D02*
X122967731Y-93869819D01*
X124396303Y-93869819D02*
X124491541Y-93869819D01*
X124491541Y-93869819D02*
X124586779Y-93917438D01*
X124586779Y-93917438D02*
X124634398Y-93965057D01*
X124634398Y-93965057D02*
X124682017Y-94060295D01*
X124682017Y-94060295D02*
X124729636Y-94250771D01*
X124729636Y-94250771D02*
X124729636Y-94488866D01*
X124729636Y-94488866D02*
X124682017Y-94679342D01*
X124682017Y-94679342D02*
X124634398Y-94774580D01*
X124634398Y-94774580D02*
X124586779Y-94822200D01*
X124586779Y-94822200D02*
X124491541Y-94869819D01*
X124491541Y-94869819D02*
X124396303Y-94869819D01*
X124396303Y-94869819D02*
X124301065Y-94822200D01*
X124301065Y-94822200D02*
X124253446Y-94774580D01*
X124253446Y-94774580D02*
X124205827Y-94679342D01*
X124205827Y-94679342D02*
X124158208Y-94488866D01*
X124158208Y-94488866D02*
X124158208Y-94250771D01*
X124158208Y-94250771D02*
X124205827Y-94060295D01*
X124205827Y-94060295D02*
X124253446Y-93965057D01*
X124253446Y-93965057D02*
X124301065Y-93917438D01*
X124301065Y-93917438D02*
X124396303Y-93869819D01*
X125205827Y-94869819D02*
X125396303Y-94869819D01*
X125396303Y-94869819D02*
X125491541Y-94822200D01*
X125491541Y-94822200D02*
X125539160Y-94774580D01*
X125539160Y-94774580D02*
X125634398Y-94631723D01*
X125634398Y-94631723D02*
X125682017Y-94441247D01*
X125682017Y-94441247D02*
X125682017Y-94060295D01*
X125682017Y-94060295D02*
X125634398Y-93965057D01*
X125634398Y-93965057D02*
X125586779Y-93917438D01*
X125586779Y-93917438D02*
X125491541Y-93869819D01*
X125491541Y-93869819D02*
X125301065Y-93869819D01*
X125301065Y-93869819D02*
X125205827Y-93917438D01*
X125205827Y-93917438D02*
X125158208Y-93965057D01*
X125158208Y-93965057D02*
X125110589Y-94060295D01*
X125110589Y-94060295D02*
X125110589Y-94298390D01*
X125110589Y-94298390D02*
X125158208Y-94393628D01*
X125158208Y-94393628D02*
X125205827Y-94441247D01*
X125205827Y-94441247D02*
X125301065Y-94488866D01*
X125301065Y-94488866D02*
X125491541Y-94488866D01*
X125491541Y-94488866D02*
X125586779Y-94441247D01*
X125586779Y-94441247D02*
X125634398Y-94393628D01*
X125634398Y-94393628D02*
X125682017Y-94298390D01*
X126539160Y-93869819D02*
X126348684Y-93869819D01*
X126348684Y-93869819D02*
X126253446Y-93917438D01*
X126253446Y-93917438D02*
X126205827Y-93965057D01*
X126205827Y-93965057D02*
X126110589Y-94107914D01*
X126110589Y-94107914D02*
X126062970Y-94298390D01*
X126062970Y-94298390D02*
X126062970Y-94679342D01*
X126062970Y-94679342D02*
X126110589Y-94774580D01*
X126110589Y-94774580D02*
X126158208Y-94822200D01*
X126158208Y-94822200D02*
X126253446Y-94869819D01*
X126253446Y-94869819D02*
X126443922Y-94869819D01*
X126443922Y-94869819D02*
X126539160Y-94822200D01*
X126539160Y-94822200D02*
X126586779Y-94774580D01*
X126586779Y-94774580D02*
X126634398Y-94679342D01*
X126634398Y-94679342D02*
X126634398Y-94441247D01*
X126634398Y-94441247D02*
X126586779Y-94346009D01*
X126586779Y-94346009D02*
X126539160Y-94298390D01*
X126539160Y-94298390D02*
X126443922Y-94250771D01*
X126443922Y-94250771D02*
X126253446Y-94250771D01*
X126253446Y-94250771D02*
X126158208Y-94298390D01*
X126158208Y-94298390D02*
X126110589Y-94346009D01*
X126110589Y-94346009D02*
X126062970Y-94441247D01*
X102586779Y-51119819D02*
X102586779Y-50119819D01*
X102586779Y-50119819D02*
X102920112Y-50834104D01*
X102920112Y-50834104D02*
X103253445Y-50119819D01*
X103253445Y-50119819D02*
X103253445Y-51119819D01*
X103729636Y-51119819D02*
X103729636Y-50119819D01*
X103729636Y-50119819D02*
X104110588Y-50119819D01*
X104110588Y-50119819D02*
X104205826Y-50167438D01*
X104205826Y-50167438D02*
X104253445Y-50215057D01*
X104253445Y-50215057D02*
X104301064Y-50310295D01*
X104301064Y-50310295D02*
X104301064Y-50453152D01*
X104301064Y-50453152D02*
X104253445Y-50548390D01*
X104253445Y-50548390D02*
X104205826Y-50596009D01*
X104205826Y-50596009D02*
X104110588Y-50643628D01*
X104110588Y-50643628D02*
X103729636Y-50643628D01*
X104729636Y-50119819D02*
X104729636Y-50929342D01*
X104729636Y-50929342D02*
X104777255Y-51024580D01*
X104777255Y-51024580D02*
X104824874Y-51072200D01*
X104824874Y-51072200D02*
X104920112Y-51119819D01*
X104920112Y-51119819D02*
X105110588Y-51119819D01*
X105110588Y-51119819D02*
X105205826Y-51072200D01*
X105205826Y-51072200D02*
X105253445Y-51024580D01*
X105253445Y-51024580D02*
X105301064Y-50929342D01*
X105301064Y-50929342D02*
X105301064Y-50119819D01*
X106967731Y-50119819D02*
X106777255Y-50119819D01*
X106777255Y-50119819D02*
X106682017Y-50167438D01*
X106682017Y-50167438D02*
X106634398Y-50215057D01*
X106634398Y-50215057D02*
X106539160Y-50357914D01*
X106539160Y-50357914D02*
X106491541Y-50548390D01*
X106491541Y-50548390D02*
X106491541Y-50929342D01*
X106491541Y-50929342D02*
X106539160Y-51024580D01*
X106539160Y-51024580D02*
X106586779Y-51072200D01*
X106586779Y-51072200D02*
X106682017Y-51119819D01*
X106682017Y-51119819D02*
X106872493Y-51119819D01*
X106872493Y-51119819D02*
X106967731Y-51072200D01*
X106967731Y-51072200D02*
X107015350Y-51024580D01*
X107015350Y-51024580D02*
X107062969Y-50929342D01*
X107062969Y-50929342D02*
X107062969Y-50691247D01*
X107062969Y-50691247D02*
X107015350Y-50596009D01*
X107015350Y-50596009D02*
X106967731Y-50548390D01*
X106967731Y-50548390D02*
X106872493Y-50500771D01*
X106872493Y-50500771D02*
X106682017Y-50500771D01*
X106682017Y-50500771D02*
X106586779Y-50548390D01*
X106586779Y-50548390D02*
X106539160Y-50596009D01*
X106539160Y-50596009D02*
X106491541Y-50691247D01*
X107682017Y-50119819D02*
X107777255Y-50119819D01*
X107777255Y-50119819D02*
X107872493Y-50167438D01*
X107872493Y-50167438D02*
X107920112Y-50215057D01*
X107920112Y-50215057D02*
X107967731Y-50310295D01*
X107967731Y-50310295D02*
X108015350Y-50500771D01*
X108015350Y-50500771D02*
X108015350Y-50738866D01*
X108015350Y-50738866D02*
X107967731Y-50929342D01*
X107967731Y-50929342D02*
X107920112Y-51024580D01*
X107920112Y-51024580D02*
X107872493Y-51072200D01*
X107872493Y-51072200D02*
X107777255Y-51119819D01*
X107777255Y-51119819D02*
X107682017Y-51119819D01*
X107682017Y-51119819D02*
X107586779Y-51072200D01*
X107586779Y-51072200D02*
X107539160Y-51024580D01*
X107539160Y-51024580D02*
X107491541Y-50929342D01*
X107491541Y-50929342D02*
X107443922Y-50738866D01*
X107443922Y-50738866D02*
X107443922Y-50500771D01*
X107443922Y-50500771D02*
X107491541Y-50310295D01*
X107491541Y-50310295D02*
X107539160Y-50215057D01*
X107539160Y-50215057D02*
X107586779Y-50167438D01*
X107586779Y-50167438D02*
X107682017Y-50119819D01*
X108920112Y-50119819D02*
X108443922Y-50119819D01*
X108443922Y-50119819D02*
X108396303Y-50596009D01*
X108396303Y-50596009D02*
X108443922Y-50548390D01*
X108443922Y-50548390D02*
X108539160Y-50500771D01*
X108539160Y-50500771D02*
X108777255Y-50500771D01*
X108777255Y-50500771D02*
X108872493Y-50548390D01*
X108872493Y-50548390D02*
X108920112Y-50596009D01*
X108920112Y-50596009D02*
X108967731Y-50691247D01*
X108967731Y-50691247D02*
X108967731Y-50929342D01*
X108967731Y-50929342D02*
X108920112Y-51024580D01*
X108920112Y-51024580D02*
X108872493Y-51072200D01*
X108872493Y-51072200D02*
X108777255Y-51119819D01*
X108777255Y-51119819D02*
X108539160Y-51119819D01*
X108539160Y-51119819D02*
X108443922Y-51072200D01*
X108443922Y-51072200D02*
X108396303Y-51024580D01*
X109586779Y-50119819D02*
X109682017Y-50119819D01*
X109682017Y-50119819D02*
X109777255Y-50167438D01*
X109777255Y-50167438D02*
X109824874Y-50215057D01*
X109824874Y-50215057D02*
X109872493Y-50310295D01*
X109872493Y-50310295D02*
X109920112Y-50500771D01*
X109920112Y-50500771D02*
X109920112Y-50738866D01*
X109920112Y-50738866D02*
X109872493Y-50929342D01*
X109872493Y-50929342D02*
X109824874Y-51024580D01*
X109824874Y-51024580D02*
X109777255Y-51072200D01*
X109777255Y-51072200D02*
X109682017Y-51119819D01*
X109682017Y-51119819D02*
X109586779Y-51119819D01*
X109586779Y-51119819D02*
X109491541Y-51072200D01*
X109491541Y-51072200D02*
X109443922Y-51024580D01*
X109443922Y-51024580D02*
X109396303Y-50929342D01*
X109396303Y-50929342D02*
X109348684Y-50738866D01*
X109348684Y-50738866D02*
X109348684Y-50500771D01*
X109348684Y-50500771D02*
X109396303Y-50310295D01*
X109396303Y-50310295D02*
X109443922Y-50215057D01*
X109443922Y-50215057D02*
X109491541Y-50167438D01*
X109491541Y-50167438D02*
X109586779Y-50119819D01*
X121750000Y-62250000D02*
X121750000Y-55250000D01*
X101500000Y-49250000D02*
X101500000Y-55000000D01*
X107250000Y-49250000D02*
X101500000Y-49250000D01*
X101500000Y-49250000D02*
X107250000Y-49250000D01*
D11*
X100500000Y-95800000D02*
X127800000Y-95800000D01*
X127800000Y-68000000D01*
X100500000Y-68000000D01*
X100500000Y-95800000D01*
D10*
X124624819Y-97793333D02*
X125339104Y-97793333D01*
X125339104Y-97793333D02*
X125481961Y-97840952D01*
X125481961Y-97840952D02*
X125577200Y-97936190D01*
X125577200Y-97936190D02*
X125624819Y-98079047D01*
X125624819Y-98079047D02*
X125624819Y-98174285D01*
X125624819Y-96793333D02*
X125624819Y-97364761D01*
X125624819Y-97079047D02*
X124624819Y-97079047D01*
X124624819Y-97079047D02*
X124767676Y-97174285D01*
X124767676Y-97174285D02*
X124862914Y-97269523D01*
X124862914Y-97269523D02*
X124910533Y-97364761D01*
X166026666Y-95934819D02*
X166026666Y-96649104D01*
X166026666Y-96649104D02*
X165979047Y-96791961D01*
X165979047Y-96791961D02*
X165883809Y-96887200D01*
X165883809Y-96887200D02*
X165740952Y-96934819D01*
X165740952Y-96934819D02*
X165645714Y-96934819D01*
X166407619Y-95934819D02*
X167026666Y-95934819D01*
X167026666Y-95934819D02*
X166693333Y-96315771D01*
X166693333Y-96315771D02*
X166836190Y-96315771D01*
X166836190Y-96315771D02*
X166931428Y-96363390D01*
X166931428Y-96363390D02*
X166979047Y-96411009D01*
X166979047Y-96411009D02*
X167026666Y-96506247D01*
X167026666Y-96506247D02*
X167026666Y-96744342D01*
X167026666Y-96744342D02*
X166979047Y-96839580D01*
X166979047Y-96839580D02*
X166931428Y-96887200D01*
X166931428Y-96887200D02*
X166836190Y-96934819D01*
X166836190Y-96934819D02*
X166550476Y-96934819D01*
X166550476Y-96934819D02*
X166455238Y-96887200D01*
X166455238Y-96887200D02*
X166407619Y-96839580D01*
X115480819Y-49533333D02*
X116195104Y-49533333D01*
X116195104Y-49533333D02*
X116337961Y-49580952D01*
X116337961Y-49580952D02*
X116433200Y-49676190D01*
X116433200Y-49676190D02*
X116480819Y-49819047D01*
X116480819Y-49819047D02*
X116480819Y-49914285D01*
X115576057Y-49104761D02*
X115528438Y-49057142D01*
X115528438Y-49057142D02*
X115480819Y-48961904D01*
X115480819Y-48961904D02*
X115480819Y-48723809D01*
X115480819Y-48723809D02*
X115528438Y-48628571D01*
X115528438Y-48628571D02*
X115576057Y-48580952D01*
X115576057Y-48580952D02*
X115671295Y-48533333D01*
X115671295Y-48533333D02*
X115766533Y-48533333D01*
X115766533Y-48533333D02*
X115909390Y-48580952D01*
X115909390Y-48580952D02*
X116480819Y-49152380D01*
X116480819Y-49152380D02*
X116480819Y-48533333D01*
X164386666Y-51484819D02*
X164386666Y-52199104D01*
X164386666Y-52199104D02*
X164339047Y-52341961D01*
X164339047Y-52341961D02*
X164243809Y-52437200D01*
X164243809Y-52437200D02*
X164100952Y-52484819D01*
X164100952Y-52484819D02*
X164005714Y-52484819D01*
X165291428Y-51818152D02*
X165291428Y-52484819D01*
X165053333Y-51437200D02*
X164815238Y-52151485D01*
X164815238Y-52151485D02*
X165434285Y-52151485D01*
X146416667Y-90657200D02*
X146559524Y-90704819D01*
X146559524Y-90704819D02*
X146797619Y-90704819D01*
X146797619Y-90704819D02*
X146892857Y-90657200D01*
X146892857Y-90657200D02*
X146940476Y-90609580D01*
X146940476Y-90609580D02*
X146988095Y-90514342D01*
X146988095Y-90514342D02*
X146988095Y-90419104D01*
X146988095Y-90419104D02*
X146940476Y-90323866D01*
X146940476Y-90323866D02*
X146892857Y-90276247D01*
X146892857Y-90276247D02*
X146797619Y-90228628D01*
X146797619Y-90228628D02*
X146607143Y-90181009D01*
X146607143Y-90181009D02*
X146511905Y-90133390D01*
X146511905Y-90133390D02*
X146464286Y-90085771D01*
X146464286Y-90085771D02*
X146416667Y-89990533D01*
X146416667Y-89990533D02*
X146416667Y-89895295D01*
X146416667Y-89895295D02*
X146464286Y-89800057D01*
X146464286Y-89800057D02*
X146511905Y-89752438D01*
X146511905Y-89752438D02*
X146607143Y-89704819D01*
X146607143Y-89704819D02*
X146845238Y-89704819D01*
X146845238Y-89704819D02*
X146988095Y-89752438D01*
X147321429Y-89704819D02*
X147559524Y-90704819D01*
X147559524Y-90704819D02*
X147750000Y-89990533D01*
X147750000Y-89990533D02*
X147940476Y-90704819D01*
X147940476Y-90704819D02*
X148178572Y-89704819D01*
X148988095Y-90038152D02*
X148988095Y-90704819D01*
X148750000Y-89657200D02*
X148511905Y-90371485D01*
X148511905Y-90371485D02*
X149130952Y-90371485D01*
X139831905Y-55444819D02*
X139831905Y-54444819D01*
X139831905Y-54444819D02*
X140070000Y-54444819D01*
X140070000Y-54444819D02*
X140212857Y-54492438D01*
X140212857Y-54492438D02*
X140308095Y-54587676D01*
X140308095Y-54587676D02*
X140355714Y-54682914D01*
X140355714Y-54682914D02*
X140403333Y-54873390D01*
X140403333Y-54873390D02*
X140403333Y-55016247D01*
X140403333Y-55016247D02*
X140355714Y-55206723D01*
X140355714Y-55206723D02*
X140308095Y-55301961D01*
X140308095Y-55301961D02*
X140212857Y-55397200D01*
X140212857Y-55397200D02*
X140070000Y-55444819D01*
X140070000Y-55444819D02*
X139831905Y-55444819D01*
X141355714Y-55444819D02*
X140784286Y-55444819D01*
X141070000Y-55444819D02*
X141070000Y-54444819D01*
X141070000Y-54444819D02*
X140974762Y-54587676D01*
X140974762Y-54587676D02*
X140879524Y-54682914D01*
X140879524Y-54682914D02*
X140784286Y-54730533D01*
X133916667Y-90907200D02*
X134059524Y-90954819D01*
X134059524Y-90954819D02*
X134297619Y-90954819D01*
X134297619Y-90954819D02*
X134392857Y-90907200D01*
X134392857Y-90907200D02*
X134440476Y-90859580D01*
X134440476Y-90859580D02*
X134488095Y-90764342D01*
X134488095Y-90764342D02*
X134488095Y-90669104D01*
X134488095Y-90669104D02*
X134440476Y-90573866D01*
X134440476Y-90573866D02*
X134392857Y-90526247D01*
X134392857Y-90526247D02*
X134297619Y-90478628D01*
X134297619Y-90478628D02*
X134107143Y-90431009D01*
X134107143Y-90431009D02*
X134011905Y-90383390D01*
X134011905Y-90383390D02*
X133964286Y-90335771D01*
X133964286Y-90335771D02*
X133916667Y-90240533D01*
X133916667Y-90240533D02*
X133916667Y-90145295D01*
X133916667Y-90145295D02*
X133964286Y-90050057D01*
X133964286Y-90050057D02*
X134011905Y-90002438D01*
X134011905Y-90002438D02*
X134107143Y-89954819D01*
X134107143Y-89954819D02*
X134345238Y-89954819D01*
X134345238Y-89954819D02*
X134488095Y-90002438D01*
X134821429Y-89954819D02*
X135059524Y-90954819D01*
X135059524Y-90954819D02*
X135250000Y-90240533D01*
X135250000Y-90240533D02*
X135440476Y-90954819D01*
X135440476Y-90954819D02*
X135678572Y-89954819D01*
X136535714Y-89954819D02*
X136059524Y-89954819D01*
X136059524Y-89954819D02*
X136011905Y-90431009D01*
X136011905Y-90431009D02*
X136059524Y-90383390D01*
X136059524Y-90383390D02*
X136154762Y-90335771D01*
X136154762Y-90335771D02*
X136392857Y-90335771D01*
X136392857Y-90335771D02*
X136488095Y-90383390D01*
X136488095Y-90383390D02*
X136535714Y-90431009D01*
X136535714Y-90431009D02*
X136583333Y-90526247D01*
X136583333Y-90526247D02*
X136583333Y-90764342D01*
X136583333Y-90764342D02*
X136535714Y-90859580D01*
X136535714Y-90859580D02*
X136488095Y-90907200D01*
X136488095Y-90907200D02*
X136392857Y-90954819D01*
X136392857Y-90954819D02*
X136154762Y-90954819D01*
X136154762Y-90954819D02*
X136059524Y-90907200D01*
X136059524Y-90907200D02*
X136011905Y-90859580D01*
X159416667Y-79157200D02*
X159559524Y-79204819D01*
X159559524Y-79204819D02*
X159797619Y-79204819D01*
X159797619Y-79204819D02*
X159892857Y-79157200D01*
X159892857Y-79157200D02*
X159940476Y-79109580D01*
X159940476Y-79109580D02*
X159988095Y-79014342D01*
X159988095Y-79014342D02*
X159988095Y-78919104D01*
X159988095Y-78919104D02*
X159940476Y-78823866D01*
X159940476Y-78823866D02*
X159892857Y-78776247D01*
X159892857Y-78776247D02*
X159797619Y-78728628D01*
X159797619Y-78728628D02*
X159607143Y-78681009D01*
X159607143Y-78681009D02*
X159511905Y-78633390D01*
X159511905Y-78633390D02*
X159464286Y-78585771D01*
X159464286Y-78585771D02*
X159416667Y-78490533D01*
X159416667Y-78490533D02*
X159416667Y-78395295D01*
X159416667Y-78395295D02*
X159464286Y-78300057D01*
X159464286Y-78300057D02*
X159511905Y-78252438D01*
X159511905Y-78252438D02*
X159607143Y-78204819D01*
X159607143Y-78204819D02*
X159845238Y-78204819D01*
X159845238Y-78204819D02*
X159988095Y-78252438D01*
X160321429Y-78204819D02*
X160559524Y-79204819D01*
X160559524Y-79204819D02*
X160750000Y-78490533D01*
X160750000Y-78490533D02*
X160940476Y-79204819D01*
X160940476Y-79204819D02*
X161178572Y-78204819D01*
X161511905Y-78300057D02*
X161559524Y-78252438D01*
X161559524Y-78252438D02*
X161654762Y-78204819D01*
X161654762Y-78204819D02*
X161892857Y-78204819D01*
X161892857Y-78204819D02*
X161988095Y-78252438D01*
X161988095Y-78252438D02*
X162035714Y-78300057D01*
X162035714Y-78300057D02*
X162083333Y-78395295D01*
X162083333Y-78395295D02*
X162083333Y-78490533D01*
X162083333Y-78490533D02*
X162035714Y-78633390D01*
X162035714Y-78633390D02*
X161464286Y-79204819D01*
X161464286Y-79204819D02*
X162083333Y-79204819D01*
X146153333Y-71194819D02*
X145820000Y-70718628D01*
X145581905Y-71194819D02*
X145581905Y-70194819D01*
X145581905Y-70194819D02*
X145962857Y-70194819D01*
X145962857Y-70194819D02*
X146058095Y-70242438D01*
X146058095Y-70242438D02*
X146105714Y-70290057D01*
X146105714Y-70290057D02*
X146153333Y-70385295D01*
X146153333Y-70385295D02*
X146153333Y-70528152D01*
X146153333Y-70528152D02*
X146105714Y-70623390D01*
X146105714Y-70623390D02*
X146058095Y-70671009D01*
X146058095Y-70671009D02*
X145962857Y-70718628D01*
X145962857Y-70718628D02*
X145581905Y-70718628D01*
X147010476Y-70528152D02*
X147010476Y-71194819D01*
X146772381Y-70147200D02*
X146534286Y-70861485D01*
X146534286Y-70861485D02*
X147153333Y-70861485D01*
X134043333Y-65674819D02*
X133710000Y-65198628D01*
X133471905Y-65674819D02*
X133471905Y-64674819D01*
X133471905Y-64674819D02*
X133852857Y-64674819D01*
X133852857Y-64674819D02*
X133948095Y-64722438D01*
X133948095Y-64722438D02*
X133995714Y-64770057D01*
X133995714Y-64770057D02*
X134043333Y-64865295D01*
X134043333Y-64865295D02*
X134043333Y-65008152D01*
X134043333Y-65008152D02*
X133995714Y-65103390D01*
X133995714Y-65103390D02*
X133948095Y-65151009D01*
X133948095Y-65151009D02*
X133852857Y-65198628D01*
X133852857Y-65198628D02*
X133471905Y-65198628D01*
X134995714Y-65674819D02*
X134424286Y-65674819D01*
X134710000Y-65674819D02*
X134710000Y-64674819D01*
X134710000Y-64674819D02*
X134614762Y-64817676D01*
X134614762Y-64817676D02*
X134519524Y-64912914D01*
X134519524Y-64912914D02*
X134424286Y-64960533D01*
X146416667Y-77907200D02*
X146559524Y-77954819D01*
X146559524Y-77954819D02*
X146797619Y-77954819D01*
X146797619Y-77954819D02*
X146892857Y-77907200D01*
X146892857Y-77907200D02*
X146940476Y-77859580D01*
X146940476Y-77859580D02*
X146988095Y-77764342D01*
X146988095Y-77764342D02*
X146988095Y-77669104D01*
X146988095Y-77669104D02*
X146940476Y-77573866D01*
X146940476Y-77573866D02*
X146892857Y-77526247D01*
X146892857Y-77526247D02*
X146797619Y-77478628D01*
X146797619Y-77478628D02*
X146607143Y-77431009D01*
X146607143Y-77431009D02*
X146511905Y-77383390D01*
X146511905Y-77383390D02*
X146464286Y-77335771D01*
X146464286Y-77335771D02*
X146416667Y-77240533D01*
X146416667Y-77240533D02*
X146416667Y-77145295D01*
X146416667Y-77145295D02*
X146464286Y-77050057D01*
X146464286Y-77050057D02*
X146511905Y-77002438D01*
X146511905Y-77002438D02*
X146607143Y-76954819D01*
X146607143Y-76954819D02*
X146845238Y-76954819D01*
X146845238Y-76954819D02*
X146988095Y-77002438D01*
X147321429Y-76954819D02*
X147559524Y-77954819D01*
X147559524Y-77954819D02*
X147750000Y-77240533D01*
X147750000Y-77240533D02*
X147940476Y-77954819D01*
X147940476Y-77954819D02*
X148178572Y-76954819D01*
X148464286Y-76954819D02*
X149083333Y-76954819D01*
X149083333Y-76954819D02*
X148750000Y-77335771D01*
X148750000Y-77335771D02*
X148892857Y-77335771D01*
X148892857Y-77335771D02*
X148988095Y-77383390D01*
X148988095Y-77383390D02*
X149035714Y-77431009D01*
X149035714Y-77431009D02*
X149083333Y-77526247D01*
X149083333Y-77526247D02*
X149083333Y-77764342D01*
X149083333Y-77764342D02*
X149035714Y-77859580D01*
X149035714Y-77859580D02*
X148988095Y-77907200D01*
X148988095Y-77907200D02*
X148892857Y-77954819D01*
X148892857Y-77954819D02*
X148607143Y-77954819D01*
X148607143Y-77954819D02*
X148511905Y-77907200D01*
X148511905Y-77907200D02*
X148464286Y-77859580D01*
X107034819Y-69843333D02*
X107749104Y-69843333D01*
X107749104Y-69843333D02*
X107891961Y-69890952D01*
X107891961Y-69890952D02*
X107987200Y-69986190D01*
X107987200Y-69986190D02*
X108034819Y-70129047D01*
X108034819Y-70129047D02*
X108034819Y-70224285D01*
X107034819Y-68938571D02*
X107034819Y-69129047D01*
X107034819Y-69129047D02*
X107082438Y-69224285D01*
X107082438Y-69224285D02*
X107130057Y-69271904D01*
X107130057Y-69271904D02*
X107272914Y-69367142D01*
X107272914Y-69367142D02*
X107463390Y-69414761D01*
X107463390Y-69414761D02*
X107844342Y-69414761D01*
X107844342Y-69414761D02*
X107939580Y-69367142D01*
X107939580Y-69367142D02*
X107987200Y-69319523D01*
X107987200Y-69319523D02*
X108034819Y-69224285D01*
X108034819Y-69224285D02*
X108034819Y-69033809D01*
X108034819Y-69033809D02*
X107987200Y-68938571D01*
X107987200Y-68938571D02*
X107939580Y-68890952D01*
X107939580Y-68890952D02*
X107844342Y-68843333D01*
X107844342Y-68843333D02*
X107606247Y-68843333D01*
X107606247Y-68843333D02*
X107511009Y-68890952D01*
X107511009Y-68890952D02*
X107463390Y-68938571D01*
X107463390Y-68938571D02*
X107415771Y-69033809D01*
X107415771Y-69033809D02*
X107415771Y-69224285D01*
X107415771Y-69224285D02*
X107463390Y-69319523D01*
X107463390Y-69319523D02*
X107511009Y-69367142D01*
X107511009Y-69367142D02*
X107606247Y-69414761D01*
X160916667Y-65907200D02*
X161059524Y-65954819D01*
X161059524Y-65954819D02*
X161297619Y-65954819D01*
X161297619Y-65954819D02*
X161392857Y-65907200D01*
X161392857Y-65907200D02*
X161440476Y-65859580D01*
X161440476Y-65859580D02*
X161488095Y-65764342D01*
X161488095Y-65764342D02*
X161488095Y-65669104D01*
X161488095Y-65669104D02*
X161440476Y-65573866D01*
X161440476Y-65573866D02*
X161392857Y-65526247D01*
X161392857Y-65526247D02*
X161297619Y-65478628D01*
X161297619Y-65478628D02*
X161107143Y-65431009D01*
X161107143Y-65431009D02*
X161011905Y-65383390D01*
X161011905Y-65383390D02*
X160964286Y-65335771D01*
X160964286Y-65335771D02*
X160916667Y-65240533D01*
X160916667Y-65240533D02*
X160916667Y-65145295D01*
X160916667Y-65145295D02*
X160964286Y-65050057D01*
X160964286Y-65050057D02*
X161011905Y-65002438D01*
X161011905Y-65002438D02*
X161107143Y-64954819D01*
X161107143Y-64954819D02*
X161345238Y-64954819D01*
X161345238Y-64954819D02*
X161488095Y-65002438D01*
X161821429Y-64954819D02*
X162059524Y-65954819D01*
X162059524Y-65954819D02*
X162250000Y-65240533D01*
X162250000Y-65240533D02*
X162440476Y-65954819D01*
X162440476Y-65954819D02*
X162678572Y-64954819D01*
X163583333Y-65954819D02*
X163011905Y-65954819D01*
X163297619Y-65954819D02*
X163297619Y-64954819D01*
X163297619Y-64954819D02*
X163202381Y-65097676D01*
X163202381Y-65097676D02*
X163107143Y-65192914D01*
X163107143Y-65192914D02*
X163011905Y-65240533D01*
X147573333Y-84214819D02*
X147240000Y-83738628D01*
X147001905Y-84214819D02*
X147001905Y-83214819D01*
X147001905Y-83214819D02*
X147382857Y-83214819D01*
X147382857Y-83214819D02*
X147478095Y-83262438D01*
X147478095Y-83262438D02*
X147525714Y-83310057D01*
X147525714Y-83310057D02*
X147573333Y-83405295D01*
X147573333Y-83405295D02*
X147573333Y-83548152D01*
X147573333Y-83548152D02*
X147525714Y-83643390D01*
X147525714Y-83643390D02*
X147478095Y-83691009D01*
X147478095Y-83691009D02*
X147382857Y-83738628D01*
X147382857Y-83738628D02*
X147001905Y-83738628D01*
X148478095Y-83214819D02*
X148001905Y-83214819D01*
X148001905Y-83214819D02*
X147954286Y-83691009D01*
X147954286Y-83691009D02*
X148001905Y-83643390D01*
X148001905Y-83643390D02*
X148097143Y-83595771D01*
X148097143Y-83595771D02*
X148335238Y-83595771D01*
X148335238Y-83595771D02*
X148430476Y-83643390D01*
X148430476Y-83643390D02*
X148478095Y-83691009D01*
X148478095Y-83691009D02*
X148525714Y-83786247D01*
X148525714Y-83786247D02*
X148525714Y-84024342D01*
X148525714Y-84024342D02*
X148478095Y-84119580D01*
X148478095Y-84119580D02*
X148430476Y-84167200D01*
X148430476Y-84167200D02*
X148335238Y-84214819D01*
X148335238Y-84214819D02*
X148097143Y-84214819D01*
X148097143Y-84214819D02*
X148001905Y-84167200D01*
X148001905Y-84167200D02*
X147954286Y-84119580D01*
X148714819Y-59643333D02*
X149429104Y-59643333D01*
X149429104Y-59643333D02*
X149571961Y-59690952D01*
X149571961Y-59690952D02*
X149667200Y-59786190D01*
X149667200Y-59786190D02*
X149714819Y-59929047D01*
X149714819Y-59929047D02*
X149714819Y-60024285D01*
X148714819Y-59262380D02*
X148714819Y-58595714D01*
X148714819Y-58595714D02*
X149714819Y-59024285D01*
X158823333Y-59404819D02*
X158490000Y-58928628D01*
X158251905Y-59404819D02*
X158251905Y-58404819D01*
X158251905Y-58404819D02*
X158632857Y-58404819D01*
X158632857Y-58404819D02*
X158728095Y-58452438D01*
X158728095Y-58452438D02*
X158775714Y-58500057D01*
X158775714Y-58500057D02*
X158823333Y-58595295D01*
X158823333Y-58595295D02*
X158823333Y-58738152D01*
X158823333Y-58738152D02*
X158775714Y-58833390D01*
X158775714Y-58833390D02*
X158728095Y-58881009D01*
X158728095Y-58881009D02*
X158632857Y-58928628D01*
X158632857Y-58928628D02*
X158251905Y-58928628D01*
X159204286Y-58500057D02*
X159251905Y-58452438D01*
X159251905Y-58452438D02*
X159347143Y-58404819D01*
X159347143Y-58404819D02*
X159585238Y-58404819D01*
X159585238Y-58404819D02*
X159680476Y-58452438D01*
X159680476Y-58452438D02*
X159728095Y-58500057D01*
X159728095Y-58500057D02*
X159775714Y-58595295D01*
X159775714Y-58595295D02*
X159775714Y-58690533D01*
X159775714Y-58690533D02*
X159728095Y-58833390D01*
X159728095Y-58833390D02*
X159156667Y-59404819D01*
X159156667Y-59404819D02*
X159775714Y-59404819D01*
X160954819Y-90095238D02*
X160478628Y-90428571D01*
X160954819Y-90666666D02*
X159954819Y-90666666D01*
X159954819Y-90666666D02*
X159954819Y-90285714D01*
X159954819Y-90285714D02*
X160002438Y-90190476D01*
X160002438Y-90190476D02*
X160050057Y-90142857D01*
X160050057Y-90142857D02*
X160145295Y-90095238D01*
X160145295Y-90095238D02*
X160288152Y-90095238D01*
X160288152Y-90095238D02*
X160383390Y-90142857D01*
X160383390Y-90142857D02*
X160431009Y-90190476D01*
X160431009Y-90190476D02*
X160478628Y-90285714D01*
X160478628Y-90285714D02*
X160478628Y-90666666D01*
X159954819Y-89809523D02*
X160954819Y-89476190D01*
X160954819Y-89476190D02*
X159954819Y-89142857D01*
X160954819Y-88285714D02*
X160954819Y-88857142D01*
X160954819Y-88571428D02*
X159954819Y-88571428D01*
X159954819Y-88571428D02*
X160097676Y-88666666D01*
X160097676Y-88666666D02*
X160192914Y-88761904D01*
X160192914Y-88761904D02*
X160240533Y-88857142D01*
X102314819Y-62773333D02*
X103029104Y-62773333D01*
X103029104Y-62773333D02*
X103171961Y-62820952D01*
X103171961Y-62820952D02*
X103267200Y-62916190D01*
X103267200Y-62916190D02*
X103314819Y-63059047D01*
X103314819Y-63059047D02*
X103314819Y-63154285D01*
X102314819Y-61820952D02*
X102314819Y-62297142D01*
X102314819Y-62297142D02*
X102791009Y-62344761D01*
X102791009Y-62344761D02*
X102743390Y-62297142D01*
X102743390Y-62297142D02*
X102695771Y-62201904D01*
X102695771Y-62201904D02*
X102695771Y-61963809D01*
X102695771Y-61963809D02*
X102743390Y-61868571D01*
X102743390Y-61868571D02*
X102791009Y-61820952D01*
X102791009Y-61820952D02*
X102886247Y-61773333D01*
X102886247Y-61773333D02*
X103124342Y-61773333D01*
X103124342Y-61773333D02*
X103219580Y-61820952D01*
X103219580Y-61820952D02*
X103267200Y-61868571D01*
X103267200Y-61868571D02*
X103314819Y-61963809D01*
X103314819Y-61963809D02*
X103314819Y-62201904D01*
X103314819Y-62201904D02*
X103267200Y-62297142D01*
X103267200Y-62297142D02*
X103219580Y-62344761D01*
X133723333Y-84274819D02*
X133390000Y-83798628D01*
X133151905Y-84274819D02*
X133151905Y-83274819D01*
X133151905Y-83274819D02*
X133532857Y-83274819D01*
X133532857Y-83274819D02*
X133628095Y-83322438D01*
X133628095Y-83322438D02*
X133675714Y-83370057D01*
X133675714Y-83370057D02*
X133723333Y-83465295D01*
X133723333Y-83465295D02*
X133723333Y-83608152D01*
X133723333Y-83608152D02*
X133675714Y-83703390D01*
X133675714Y-83703390D02*
X133628095Y-83751009D01*
X133628095Y-83751009D02*
X133532857Y-83798628D01*
X133532857Y-83798628D02*
X133151905Y-83798628D01*
X134580476Y-83274819D02*
X134390000Y-83274819D01*
X134390000Y-83274819D02*
X134294762Y-83322438D01*
X134294762Y-83322438D02*
X134247143Y-83370057D01*
X134247143Y-83370057D02*
X134151905Y-83512914D01*
X134151905Y-83512914D02*
X134104286Y-83703390D01*
X134104286Y-83703390D02*
X134104286Y-84084342D01*
X134104286Y-84084342D02*
X134151905Y-84179580D01*
X134151905Y-84179580D02*
X134199524Y-84227200D01*
X134199524Y-84227200D02*
X134294762Y-84274819D01*
X134294762Y-84274819D02*
X134485238Y-84274819D01*
X134485238Y-84274819D02*
X134580476Y-84227200D01*
X134580476Y-84227200D02*
X134628095Y-84179580D01*
X134628095Y-84179580D02*
X134675714Y-84084342D01*
X134675714Y-84084342D02*
X134675714Y-83846247D01*
X134675714Y-83846247D02*
X134628095Y-83751009D01*
X134628095Y-83751009D02*
X134580476Y-83703390D01*
X134580476Y-83703390D02*
X134485238Y-83655771D01*
X134485238Y-83655771D02*
X134294762Y-83655771D01*
X134294762Y-83655771D02*
X134199524Y-83703390D01*
X134199524Y-83703390D02*
X134151905Y-83751009D01*
X134151905Y-83751009D02*
X134104286Y-83846247D01*
X160283333Y-72814819D02*
X159950000Y-72338628D01*
X159711905Y-72814819D02*
X159711905Y-71814819D01*
X159711905Y-71814819D02*
X160092857Y-71814819D01*
X160092857Y-71814819D02*
X160188095Y-71862438D01*
X160188095Y-71862438D02*
X160235714Y-71910057D01*
X160235714Y-71910057D02*
X160283333Y-72005295D01*
X160283333Y-72005295D02*
X160283333Y-72148152D01*
X160283333Y-72148152D02*
X160235714Y-72243390D01*
X160235714Y-72243390D02*
X160188095Y-72291009D01*
X160188095Y-72291009D02*
X160092857Y-72338628D01*
X160092857Y-72338628D02*
X159711905Y-72338628D01*
X160616667Y-71814819D02*
X161235714Y-71814819D01*
X161235714Y-71814819D02*
X160902381Y-72195771D01*
X160902381Y-72195771D02*
X161045238Y-72195771D01*
X161045238Y-72195771D02*
X161140476Y-72243390D01*
X161140476Y-72243390D02*
X161188095Y-72291009D01*
X161188095Y-72291009D02*
X161235714Y-72386247D01*
X161235714Y-72386247D02*
X161235714Y-72624342D01*
X161235714Y-72624342D02*
X161188095Y-72719580D01*
X161188095Y-72719580D02*
X161140476Y-72767200D01*
X161140476Y-72767200D02*
X161045238Y-72814819D01*
X161045238Y-72814819D02*
X160759524Y-72814819D01*
X160759524Y-72814819D02*
X160664286Y-72767200D01*
X160664286Y-72767200D02*
X160616667Y-72719580D01*
D12*
%TO.C,G\u002A\u002A\u002A*%
G36*
X117654737Y-84084410D02*
G01*
X117582759Y-84379093D01*
X117461175Y-84520301D01*
X117398103Y-84597930D01*
X117348232Y-84771829D01*
X117309474Y-85071653D01*
X117279745Y-85527057D01*
X117256959Y-86167696D01*
X117239029Y-87023225D01*
X117227227Y-87846568D01*
X117186842Y-91064513D01*
X116783726Y-91716082D01*
X116357617Y-92259333D01*
X115802386Y-92666672D01*
X115665565Y-92741194D01*
X114950521Y-93114737D01*
X111657103Y-93108869D01*
X110515453Y-93102497D01*
X109612208Y-93086938D01*
X108918516Y-93060733D01*
X108405526Y-93022426D01*
X108044384Y-92970559D01*
X107838840Y-92916007D01*
X107416331Y-92700709D01*
X106978317Y-92381955D01*
X106838436Y-92253454D01*
X106362877Y-91777895D01*
X108967491Y-91777149D01*
X109811508Y-91769783D01*
X110595897Y-91749736D01*
X111268947Y-91719354D01*
X111778951Y-91680981D01*
X112074198Y-91636960D01*
X112077075Y-91636172D01*
X112677939Y-91354506D01*
X113243819Y-90888688D01*
X113687017Y-90316688D01*
X113795945Y-90107989D01*
X113879042Y-89893858D01*
X113941273Y-89640759D01*
X113985583Y-89308510D01*
X114014915Y-88856928D01*
X114032216Y-88245828D01*
X114040428Y-87435028D01*
X114042327Y-86745619D01*
X114045529Y-85793686D01*
X114054525Y-85075822D01*
X114071769Y-84558751D01*
X114099716Y-84209194D01*
X114140819Y-83993873D01*
X114197532Y-83879511D01*
X114256723Y-83837987D01*
X114468455Y-83806125D01*
X114886123Y-83780142D01*
X115448311Y-83762799D01*
X116061460Y-83756842D01*
X117654737Y-83756842D01*
X117654737Y-84084410D01*
G37*
G36*
X107877137Y-82019645D02*
G01*
X109008357Y-82024316D01*
X109925757Y-82036822D01*
X110656109Y-82061028D01*
X111226189Y-82100797D01*
X111662770Y-82159995D01*
X111992625Y-82242484D01*
X112242530Y-82352129D01*
X112439257Y-82492794D01*
X112609580Y-82668342D01*
X112780274Y-82882638D01*
X112816230Y-82929723D01*
X113176316Y-83401819D01*
X113176316Y-86553804D01*
X113175604Y-87551612D01*
X113171304Y-88318470D01*
X113160172Y-88890798D01*
X113138961Y-89305015D01*
X113104426Y-89597539D01*
X113053322Y-89804789D01*
X112982404Y-89963186D01*
X112888426Y-90109146D01*
X112855331Y-90155841D01*
X112683797Y-90385612D01*
X112510033Y-90574906D01*
X112307557Y-90727659D01*
X112049886Y-90847807D01*
X111710535Y-90939286D01*
X111263022Y-91006031D01*
X110680863Y-91051980D01*
X109937575Y-91081068D01*
X109006676Y-91097231D01*
X107861680Y-91104406D01*
X106476107Y-91106527D01*
X106458684Y-91106538D01*
X101478947Y-91109474D01*
X101478947Y-90784272D01*
X101581718Y-90478376D01*
X101746316Y-90374211D01*
X101824871Y-90339906D01*
X101886320Y-90272803D01*
X101932759Y-90143008D01*
X101966287Y-89920627D01*
X101967230Y-89906316D01*
X105088421Y-89906316D01*
X107252173Y-89906316D01*
X108063616Y-89904253D01*
X108651905Y-89894602D01*
X109061241Y-89872168D01*
X109335829Y-89831754D01*
X109519871Y-89768166D01*
X109657570Y-89676209D01*
X109725331Y-89615644D01*
X109829120Y-89510034D01*
X109906646Y-89390159D01*
X109961739Y-89218332D01*
X109998227Y-88956866D01*
X110019941Y-88568075D01*
X110030710Y-88014273D01*
X110034363Y-87257773D01*
X110034737Y-86570653D01*
X110031569Y-85607769D01*
X110020439Y-84876444D01*
X109998909Y-84340925D01*
X109964541Y-83965460D01*
X109914895Y-83714294D01*
X109847535Y-83551677D01*
X109826630Y-83519219D01*
X109739521Y-83410687D01*
X109626343Y-83332409D01*
X109446024Y-83279449D01*
X109157492Y-83246874D01*
X108719675Y-83229749D01*
X108091499Y-83223140D01*
X107353472Y-83222105D01*
X105088421Y-83222105D01*
X105088421Y-86564211D01*
X105088421Y-89906316D01*
X101967230Y-89906316D01*
X101989001Y-89575766D01*
X102003000Y-89078533D01*
X102010380Y-88399034D01*
X102013240Y-87507375D01*
X102013684Y-86564211D01*
X102013012Y-85469514D01*
X102009595Y-84612291D01*
X102001337Y-83962649D01*
X101986140Y-83490694D01*
X101961905Y-83166533D01*
X101926536Y-82960272D01*
X101877933Y-82842019D01*
X101814001Y-82781878D01*
X101746316Y-82754211D01*
X101521637Y-82557900D01*
X101478947Y-82344149D01*
X101478947Y-82018947D01*
X106505323Y-82018947D01*
X107877137Y-82019645D01*
G37*
G36*
X107327632Y-83786269D02*
G01*
X109032105Y-83823684D01*
X109032105Y-86497369D01*
X109032105Y-89171053D01*
X107461316Y-89208716D01*
X105890526Y-89246380D01*
X105890526Y-86910553D01*
X105883003Y-86042795D01*
X105861512Y-85339399D01*
X105827675Y-84829686D01*
X105783113Y-84542976D01*
X105756842Y-84492105D01*
X105653830Y-84308063D01*
X105623158Y-84079169D01*
X105623158Y-83748854D01*
X107327632Y-83786269D01*
G37*
D13*
%TO.C,J1*%
X126610000Y-96130000D02*
X127940000Y-96130000D01*
X126610000Y-97460000D02*
X126610000Y-96130000D01*
X129210000Y-96130000D02*
X147050000Y-96130000D01*
X129210000Y-98790000D02*
X129210000Y-96130000D01*
X129210000Y-98790000D02*
X147050000Y-98790000D01*
X147050000Y-98790000D02*
X147050000Y-96130000D01*
%TO.C,J3*%
X149470000Y-96130000D02*
X150800000Y-96130000D01*
X149470000Y-97460000D02*
X149470000Y-96130000D01*
X152070000Y-96130000D02*
X164830000Y-96130000D01*
X152070000Y-98790000D02*
X152070000Y-96130000D01*
X152070000Y-98790000D02*
X164830000Y-98790000D01*
X164830000Y-98790000D02*
X164830000Y-96130000D01*
%TO.C,J2*%
X117466000Y-47870000D02*
X118796000Y-47870000D01*
X117466000Y-49200000D02*
X117466000Y-47870000D01*
X120066000Y-47870000D02*
X142986000Y-47870000D01*
X120066000Y-50530000D02*
X120066000Y-47870000D01*
X120066000Y-50530000D02*
X142986000Y-50530000D01*
X142986000Y-50530000D02*
X142986000Y-47870000D01*
%TO.C,J4*%
X144390000Y-47870000D02*
X145720000Y-47870000D01*
X144390000Y-49200000D02*
X144390000Y-47870000D01*
X146990000Y-47870000D02*
X164830000Y-47870000D01*
X146990000Y-50530000D02*
X146990000Y-47870000D01*
X146990000Y-50530000D02*
X164830000Y-50530000D01*
X164830000Y-50530000D02*
X164830000Y-47870000D01*
%TO.C,SW4*%
X144250000Y-89500000D02*
X144250000Y-91000000D01*
X145500000Y-93500000D02*
X150000000Y-93500000D01*
X150000000Y-87000000D02*
X145500000Y-87000000D01*
X151250000Y-91000000D02*
X151250000Y-89500000D01*
%TO.C,D1*%
X135955000Y-60330000D02*
X139045000Y-60330000D01*
X135955170Y-60330000D02*
G75*
G02*
X137500462Y-54780000I1544830J2560000D01*
G01*
X137499538Y-54780000D02*
G75*
G02*
X139044830Y-60330000I462J-2990000D01*
G01*
X140000000Y-57770000D02*
G75*
G02*
X135000000Y-57770000I-2500000J0D01*
G01*
X135000000Y-57770000D02*
G75*
G02*
X140000000Y-57770000I2500000J0D01*
G01*
%TO.C,SW5*%
X131750000Y-89750000D02*
X131750000Y-91250000D01*
X133000000Y-93750000D02*
X137500000Y-93750000D01*
X137500000Y-87250000D02*
X133000000Y-87250000D01*
X138750000Y-91250000D02*
X138750000Y-89750000D01*
%TO.C,SW2*%
X157250000Y-78000000D02*
X157250000Y-79500000D01*
X158500000Y-82000000D02*
X163000000Y-82000000D01*
X163000000Y-75500000D02*
X158500000Y-75500000D01*
X164250000Y-79500000D02*
X164250000Y-78000000D01*
%TO.C,R4*%
X142980000Y-72120000D02*
X149520000Y-72120000D01*
X149520000Y-72120000D02*
X149520000Y-69380000D01*
X142210000Y-70750000D02*
X142980000Y-70750000D01*
X150290000Y-70750000D02*
X149520000Y-70750000D01*
X142980000Y-69380000D02*
X142980000Y-72120000D01*
X149520000Y-69380000D02*
X142980000Y-69380000D01*
%TO.C,R1*%
X130980000Y-66620000D02*
X137520000Y-66620000D01*
X137520000Y-66620000D02*
X137520000Y-63880000D01*
X130210000Y-65250000D02*
X130980000Y-65250000D01*
X138290000Y-65250000D02*
X137520000Y-65250000D01*
X130980000Y-63880000D02*
X130980000Y-66620000D01*
X137520000Y-63880000D02*
X130980000Y-63880000D01*
%TO.C,SW3*%
X144250000Y-76750000D02*
X144250000Y-78250000D01*
X145500000Y-80750000D02*
X150000000Y-80750000D01*
X150000000Y-74250000D02*
X145500000Y-74250000D01*
X151250000Y-78250000D02*
X151250000Y-76750000D01*
%TO.C,J6*%
X111620000Y-70840000D02*
X119300000Y-70840000D01*
X111620000Y-70840000D02*
X111620000Y-68180000D01*
X119300000Y-70840000D02*
X119300000Y-68180000D01*
X109020000Y-69510000D02*
X109020000Y-68180000D01*
X109020000Y-68180000D02*
X110350000Y-68180000D01*
X111620000Y-68180000D02*
X119300000Y-68180000D01*
%TO.C,SW1*%
X158750000Y-64750000D02*
X158750000Y-66250000D01*
X160000000Y-68750000D02*
X164500000Y-68750000D01*
X164500000Y-62250000D02*
X160000000Y-62250000D01*
X165750000Y-66250000D02*
X165750000Y-64750000D01*
%TO.C,R5*%
X144400000Y-85120000D02*
X150940000Y-85120000D01*
X150940000Y-85120000D02*
X150940000Y-82380000D01*
X143630000Y-83750000D02*
X144400000Y-83750000D01*
X151710000Y-83750000D02*
X150940000Y-83750000D01*
X144400000Y-82380000D02*
X144400000Y-85120000D01*
X150940000Y-82380000D02*
X144400000Y-82380000D01*
%TO.C,J7*%
X144500000Y-64600000D02*
X145750000Y-64600000D01*
X144790000Y-64310000D02*
X150760000Y-64310000D01*
X150760000Y-64310000D02*
X150760000Y-54190000D01*
X144800000Y-64300000D02*
X145550000Y-64300000D01*
X145550000Y-64300000D02*
X145550000Y-62500000D01*
X147050000Y-64300000D02*
X147050000Y-63550000D01*
X147050000Y-63550000D02*
X150000000Y-63550000D01*
X150000000Y-63550000D02*
X150000000Y-59250000D01*
X144500000Y-63350000D02*
X144500000Y-64600000D01*
X144800000Y-62500000D02*
X144800000Y-64300000D01*
X145550000Y-62500000D02*
X144800000Y-62500000D01*
X144800000Y-61000000D02*
X145550000Y-61000000D01*
X145550000Y-61000000D02*
X145550000Y-57500000D01*
X144800000Y-57500000D02*
X144800000Y-61000000D01*
X145550000Y-57500000D02*
X144800000Y-57500000D01*
X144800000Y-56000000D02*
X145550000Y-56000000D01*
X145550000Y-56000000D02*
X145550000Y-54200000D01*
X147050000Y-54950000D02*
X150000000Y-54950000D01*
X150000000Y-54950000D02*
X150000000Y-59250000D01*
X144800000Y-54200000D02*
X144800000Y-56000000D01*
X145550000Y-54200000D02*
X144800000Y-54200000D01*
X147050000Y-54200000D02*
X147050000Y-54950000D01*
X144790000Y-54190000D02*
X144790000Y-64310000D01*
X150760000Y-54190000D02*
X144790000Y-54190000D01*
%TO.C,R2*%
X155650000Y-60370000D02*
X162190000Y-60370000D01*
X162190000Y-60370000D02*
X162190000Y-57630000D01*
X154880000Y-59000000D02*
X155650000Y-59000000D01*
X162960000Y-59000000D02*
X162190000Y-59000000D01*
X155650000Y-57630000D02*
X155650000Y-60370000D01*
X162190000Y-57630000D02*
X155650000Y-57630000D01*
%TO.C,RV1*%
X155615000Y-84615000D02*
X155615000Y-94385000D01*
X165385000Y-84615000D02*
X155615000Y-84615000D01*
X165385000Y-84615000D02*
X165385000Y-94385000D01*
X165385000Y-94385000D02*
X155615000Y-94385000D01*
%TO.C,J5*%
X103900000Y-64050000D02*
X121740000Y-64050000D01*
X101300000Y-64050000D02*
X102630000Y-64050000D01*
X101300000Y-65380000D02*
X101300000Y-64050000D01*
X121740000Y-66710000D02*
X121740000Y-64050000D01*
X103900000Y-66710000D02*
X103900000Y-64050000D01*
X103900000Y-66710000D02*
X121740000Y-66710000D01*
%TO.C,R6*%
X130650000Y-85120000D02*
X137190000Y-85120000D01*
X137190000Y-85120000D02*
X137190000Y-82380000D01*
X129880000Y-83750000D02*
X130650000Y-83750000D01*
X137960000Y-83750000D02*
X137190000Y-83750000D01*
X130650000Y-82380000D02*
X130650000Y-85120000D01*
X137190000Y-82380000D02*
X130650000Y-82380000D01*
%TO.C,R3*%
X157230000Y-73870000D02*
X163770000Y-73870000D01*
X163770000Y-73870000D02*
X163770000Y-71130000D01*
X156460000Y-72500000D02*
X157230000Y-72500000D01*
X164540000Y-72500000D02*
X163770000Y-72500000D01*
X157230000Y-71130000D02*
X157230000Y-73870000D01*
X163770000Y-71130000D02*
X157230000Y-71130000D01*
%TD*%
M02*
